# xmcd
# 
# Track frame offsets:
#     150
#     53682
#     64930
# 
# Disc length: 2362
# 
# Revision: 0
# Processed by: cddbd v1.5.2PL0 Copyright (c) Steve Scherf et al.
# Submitted via: BonkEnc v1.0.8
# 
DISCID=22093803
DTITLE=The Jazz Composer's Orchestra - Communication
DYEAR=1965
DGENRE=Big Band
TTITLE0=Roast
TTITLE1=Day (Communications No.4)
TTITLE2=Day (Communications No.5)
EXTD=
EXTT0=
EXTT1=
EXTT2=
PLAYORDER=
